<svg width="25" height="25" xmlns="http://www.w3.org/2000/svg" fill="none">

  <path id="svg_1" fill-opacity="0.1" fill="black" d="m3.125,10.1562l4.6875,0l0,10.1563l-4.6875,0c-0.20719,0 -0.40593,-0.0823 -0.55242,-0.2288c-0.14653,-0.1465 -0.22883,-0.3453 -0.22883,-0.5525l0,-8.5937c0,-0.2072 0.0823,-0.4059 0.22883,-0.5524c0.14649,-0.1465 0.34523,-0.2289 0.55242,-0.2289l0,0z"/>
  <path stroke="null" id="svg_2" fill="#fff" d="m1.95359,10.19271c0,0 0.45764,-0.42319 1.10485,-0.42319l4.6875,0c0.43147,0 0.78125,0.32344 0.78125,0.72237l0,9.39149c0,0.39901 -0.34978,0.72246 -0.78125,0.72246l-4.6875,0c0.07117,0.06581 -0.64721,0 -1.10485,-0.42323c0,0 -0.45765,-0.42314 -0.45765,-1.0217l0,-7.94656c0,0 0,-0.59846 0.45765,-1.02165zm1.10485,1.02165l0,7.94656l3.90625,0l0,-7.94656l-3.90625,0z" clip-rule="evenodd" fill-rule="evenodd"/>
  <path id="svg_3" fill="#fff" d="m19.68121,19.50052l-11.9043,0c-0.43147,0 -0.78125,0.3498 -0.78125,0.7813c0,0.4315 0.34978,0.7813 0.78125,0.7813l11.9043,0c0.8864,-0.0042 1.5471,-0.5896 1.5471,-0.5896c0.6607,-0.5854 0.771,-1.4612 0.771,-1.4612l1.172,-9.37579c0.0659,-0.49461 -0.0805,-0.97826 -0.0805,-0.97826c-0.1465,-0.48365 -0.4798,-0.86342 -0.4798,-0.86342c-0.3334,-0.37977 -0.7939,-0.58765 -0.7939,-0.58765c-0.4606,-0.20788 -0.966,-0.20663 -0.966,-0.20663l-5.50717,-0.09205l0,-1.47045c-0.30684,-1.80213 -0.43836,-1.74956 -0.99068,-2.48598c-0.55232,-0.73642 -1.25857,-0.99069 -1.96431,-1.17479c-0.70574,-0.18411 -0.9098,-0.05219 -1.46591,0.33981c-0.55611,0.392 -0.89742,1.45906 -1.30011,3.32391l-1.18119,2.14305l-1.31616,2.30356c-1.01509,0.74906 -0.12992,0.1167 -0.12992,0.2379l0.00001,0.0029c0.00029,0.083 0.01383,0.1654 0.04008,0.2442c0.06552,0.1966 0.20645,0.3591 0.39177,0.4517c0.10849,0.0543 0.2281,0.0825 0.34939,0.0825l0.01059,-0.0001c0.29208,-0.0039 0.55755,-0.1705 0.68818,-0.4318l0.00022,-0.0004l1.15846,-2.31688l1.16459,-2.1718c0.28591,-1.59706 0.43802,-2.86403 1.19274,-2.97244c0.92377,0.00488 1.07256,0.27644 1.44077,0.76739c0.37966,0.77852 0.59445,1.65728 0.59445,1.65728l0,2.34375c0,0.43147 0.3498,0.78125 0.7812,0.78125l6.0469,0c0.167,-0.00041 0.3193,0.0683 0.3193,0.0683c0.1522,0.06871 0.2624,0.19424 0.2624,0.19424c0.1102,0.12553 0.1586,0.2854 0.1586,0.2854c0.0484,0.15987 0.0255,0.33172 0.0255,0.33172l-1.1718,9.37429c-0.0367,0.2919 -0.257,0.487 -0.257,0.487c-0.2202,0.1952 -0.5108,0.1965 -0.5108,0.1965z"/>
</svg>