<svg width="25" height="25" viewBox="0 0 25 25" fill="none" xmlns="http://www.w3.org/2000/svg">
<path d="M21.0938 4.6875H3.90625C3.47478 4.6875 3.125 5.03728 3.125 5.46875C3.125 5.90022 3.47478 6.25 3.90625 6.25H21.0938C21.5252 6.25 21.875 5.90022 21.875 5.46875C21.875 5.03728 21.5252 4.6875 21.0938 4.6875Z" fill="#1C1C1C"/>
<path d="M9.375 10.1562V16.4062C9.375 16.8377 9.72478 17.1875 10.1562 17.1875C10.5877 17.1875 10.9375 16.8377 10.9375 16.4062V10.1562C10.9375 9.72478 10.5877 9.375 10.1562 9.375C9.72478 9.375 9.375 9.72478 9.375 10.1562Z" fill="#1C1C1C"/>
<path d="M14.0625 10.1562V16.4062C14.0625 16.8377 14.4123 17.1875 14.8438 17.1875C15.2752 17.1875 15.625 16.8377 15.625 16.4062V10.1562C15.625 9.72478 15.2752 9.375 14.8438 9.375C14.4123 9.375 14.0625 9.72478 14.0625 10.1562Z" fill="#1C1C1C"/>
<path d="M6.25 20.3125V5.46875C6.25 5.03728 5.90022 4.6875 5.46875 4.6875C5.03728 4.6875 4.6875 5.03728 4.6875 5.46875V20.3125C4.6875 20.9597 5.14515 21.4174 5.14515 21.4174C5.60279 21.875 6.25 21.875 6.25 21.875H18.75C19.3972 21.875 19.8549 21.4174 19.8549 21.4174C20.3125 20.9597 20.3125 20.3125 20.3125 20.3125V5.46875C20.3125 5.03728 19.9627 4.6875 19.5312 4.6875C19.0998 4.6875 18.75 5.03728 18.75 5.46875V20.3125H6.25Z" fill="#1C1C1C"/>
<path d="M8.49897 2.24897C7.8125 2.93544 7.8125 3.90625 7.8125 3.90625V5.46875C7.8125 5.90022 8.16228 6.25 8.59375 6.25C9.02522 6.25 9.375 5.90022 9.375 5.46875V3.90625C9.375 3.58265 9.60382 3.35382 9.60382 3.35382C9.83265 3.125 10.1562 3.125 10.1562 3.125H14.8438C15.1674 3.125 15.3962 3.35382 15.3962 3.35382C15.625 3.58265 15.625 3.90625 15.625 3.90625V5.46875C15.625 5.90022 15.9748 6.25 16.4062 6.25C16.8377 6.25 17.1875 5.90022 17.1875 5.46875V3.90625C17.1875 2.93544 16.501 2.24897 16.501 2.24897C15.8146 1.5625 14.8438 1.5625 14.8438 1.5625H10.1562C9.18544 1.5625 8.49897 2.24897 8.49897 2.24897Z" fill="#1C1C1C"/>
</svg>
