<svg width="20" height="20" viewBox="0 0 20 20" fill="none" xmlns="http://www.w3.org/2000/svg">
<path fill-rule="evenodd" clip-rule="evenodd" d="M0 10C0 15.5228 4.47715 20 10 20C15.5228 20 20 15.5228 20 10C20 4.47715 15.5228 0 10 0C4.47715 0 0 4.47715 0 10ZM10 9C10.5523 9 11 9.44771 11 10V16C11 16.5523 10.5523 17 10 17C9.44771 17 9 16.5523 9 16V10C9 9.44771 9.44771 9 10 9ZM9 5C9 5.55228 9.44771 6 10 6C10.5523 6 11 5.55228 11 5V4C11 3.44772 10.5523 3 10 3C9.44772 3 9 3.44772 9 4V5Z" fill="#333333"/>
</svg>
