<svg width="25" height="25" xmlns="http://www.w3.org/2000/svg" fill="none">

 <g>
  <title>Layer 1</title>
  <path id="svg_1" fill-opacity="0.1" fill="black" d="m3.125,10.1562l4.6875,0l0,10.1563l-4.6875,0c-0.20719,0 -0.40593,-0.0823 -0.55242,-0.2288c-0.14653,-0.1465 -0.22883,-0.3453 -0.22883,-0.5525l0,-8.5937c0,-0.2072 0.0823,-0.4059 0.22883,-0.5524c0.14649,-0.1465 0.34523,-0.2289 0.55242,-0.2289l0,0z"/>
  <path stroke="null" id="svg_2" fill="#fff" d="m1.95359,10.19271c0,0 0.45764,-0.42319 1.10485,-0.42319l4.6875,0c0.43147,0 0.78125,0.32344 0.78125,0.72237l0,9.39149c0,0.39901 -1.15479,1.40821 -1.58626,1.40821l-3.88249,0c-0.6742,0.00618 -1.60129,-0.17889 -1.58189,-1.43695l0.01939,-8.64029c0,0 0,-0.59846 0.45765,-1.02165zm1.10485,1.02165l-0.02982,8.60249l3.93607,0l0,-8.60249l-3.90625,0z" clip-rule="evenodd" fill-rule="evenodd"/>
  <path id="svg_3" fill="#fff" d="m19.50232,20.03719l-9.99613,0c-0.51881,-0.16692 -1.00782,-0.63198 -1.37755,-1.12686l-0.5091,1.64443c0.6356,0.36437 1.03268,0.90763 1.9068,1.0931l1.32153,0.01156l8.65445,-0.05963c0.8864,-0.0042 1.5471,-0.5896 1.5471,-0.5896c0.6607,-0.5854 0.771,-1.4612 0.771,-1.4612l1.172,-9.37579c0.06355,-1.05701 -0.3524,-1.56261 -1.27667,-1.77132l-6.49107,-0.06224l-0.05963,-2.36489c-0.30685,-1.80213 -0.43837,-1.74956 -0.99068,-2.48599c-0.55232,-0.73642 -1.25857,-0.99068 -1.96431,-1.17479c-0.70574,-0.18411 -0.9098,-0.05219 -1.46591,0.33981c-0.55611,0.392 -0.8676,1.45906 -1.27029,3.32391l-1.09175,2.17286l-1.43542,2.27374c-1.01509,0.74906 -0.12992,0.11671 -0.12992,0.23791l0.00001,0.0029c0.00029,0.083 0.01383,0.1654 0.04008,0.2442c0.06552,0.1966 0.20645,0.3591 0.39177,0.4517c0.10849,0.0543 0.2281,0.0825 0.34939,0.0825l0.01059,-0.0001c0.29208,-0.0039 0.55755,-0.1705 0.68818,-0.4318l0.00022,-0.0004l1.21809,-2.19762l1.16459,-2.1718c0.28591,-1.59707 0.55728,-2.74478 1.312,-2.85318c0.92377,0.00488 0.98312,0.42551 1.26188,0.7972c0.37966,0.77852 0.41556,1.03117 0.59445,1.74673l0,1.98597c0,0.43147 -0.0378,1.49681 0.75138,1.52663l6.15404,0.05963c0.49103,0.06956 0.65408,-0.00994 0.66806,0.65593l-1.15138,8.79301c-0.0367,0.2919 -0.257,0.487 -0.257,0.487c-0.2202,0.1952 -0.5108,0.1965 -0.5108,0.1965z"/>
 </g>
</svg>