<svg width="25" height="25" xmlns="http://www.w3.org/2000/svg" fill="none">

 <g>
  <title>Layer 1</title>
  <path id="svg_1" fill-opacity="0.1" fill="black" d="m3.125,10.1562l4.6875,0l0,10.1563l-4.6875,0c-0.20719,0 -0.40593,-0.0823 -0.55242,-0.2288c-0.14653,-0.1465 -0.22883,-0.3453 -0.22883,-0.5525l0,-8.5937c0,-0.2072 0.0823,-0.4059 0.22883,-0.5524c0.14649,-0.1465 0.34523,-0.2289 0.55242,-0.2289l0,0z"/>
  <path stroke="null" id="svg_2" fill="#fff" d="m2.49096,9.4016l5.49314,0.03357l-0.02439,10.5156c-0.05475,1.08097 -0.3883,1.55556 -1.58626,1.6116l-3.85267,0c-1.00218,-0.08523 -1.63111,-0.54936 -1.61171,-1.83717l0.01939,-8.8446c0.08283,-0.71717 0.5763,-1.40634 1.5625,-1.479zm0,1.479l-0.02981,8.98902l4.01086,0.0025l-0.0748,-8.99152l-3.90625,0z" clip-rule="evenodd" fill-rule="evenodd"/>
  <path id="svg_3" fill="#fff" d="m19.43519,19.98l-9.99613,0c-0.57356,-0.19429 -1.61725,0.0039 -1.53667,-2.42299l-0.34998,2.94056c0.449,0.96148 1.03268,0.90763 1.9068,1.0931l1.32153,0.01156l8.65445,-0.05963c0.8864,-0.0042 1.5471,-0.5896 1.5471,-0.5896c0.6607,-0.5854 0.771,-1.4612 0.771,-1.4612l1.172,-9.37579c0.06355,-1.05701 -0.3524,-1.56261 -1.27667,-1.77132l-6.49107,-0.06224l-0.05963,-2.36489c-0.08785,-1.39151 -0.411,-1.69481 -0.90856,-2.51336c-0.49756,-0.81855 -1.25857,-0.99068 -2.04643,-1.14742c-0.78786,-0.15674 -0.9098,-0.05219 -1.46591,0.33981c-0.55611,0.392 -1.00447,1.51381 -1.40716,3.37866l-0.32526,1.40637l-1.61818,2.44404l-0.6513,0.72259c0.23786,0.94389 0.84926,1.46134 1.08939,1.11791l1.27924,-1.55082l1.16826,-1.71482l0.53743,-1.7338c0.28591,-1.59707 0.42041,-2.8269 1.17513,-2.9353c0.92377,0.00488 0.98312,0.42551 1.26188,0.7972c0.37966,0.77852 0.41556,1.03117 0.59445,1.74673l0,1.98597c0,0.43147 -0.0378,1.49681 0.75138,1.52663l6.15404,0.05963c0.49103,0.06956 0.65408,-0.00994 0.66806,0.65593l-1.15138,8.79301c-0.0367,0.2919 -0.257,0.487 -0.257,0.487c-0.2202,0.1952 -0.5108,0.1965 -0.5108,0.1965z"/>
 </g>
</svg>