    <svg width="25" height="25" xmlns="http://www.w3.org/2000/svg">
      <path d="m-64.47097,-200.27299l29.37628,-12.42331c0.07157,0.05112 -9.13088,30.11247 -9.23313,30.01022c-0.10225,-0.10225 -2.24949,3.88548 -3.78323,-0.92025c-1.53374,-4.80573 -3.06748,-9.5092 -3.13906,-9.56033c0.07157,0.05112 -13.32311,-2.70961 -13.39468,-2.76074c0.07158,0.05112 19.90798,-7.71984 0.17382,-4.3456l0,0.00001z" />
      <path d="m-132.71227,-149.10121l20.37832,7.92434c0.07157,0.05112 -20.48057,7.31084 -20.78732,7.20859c-0.30675,-0.10225 -7.87321,-4.80573 0.409,-15.13292l0,-0.00001z" />
      <path d="m-88.24397,-218.75153c1.84049,-15.95092 14.21268,2.76074 14.1411,2.70961c0.07157,0.05112 -10.05112,14.57055 -12.81186,2.50511c-2.76074,-12.06544 -3.16973,10.7362 -1.32924,-5.21472z" />
      <path d="m13.14706,21.47694c1.16469,-0.63465 20.23881,-7.0979 21.74548,-7.58477c1.50668,-0.48687 1.66263,0.5791 1.4965,1.1331l-7.28422,21.50965c-0.97462,2.27732 -2.88412,1.74564 -3.29077,0.43416l-3.40978,-9.19356l-8.55436,-3.15719c-2.27812,-1.05054 -1.86755,-2.50675 -0.70287,-3.1414z" />
    </svg>