<svg width="32" height="32" viewBox="0 0 32 32" fill="none" xmlns="http://www.w3.org/2000/svg">
<path fill-rule="evenodd" clip-rule="evenodd" d="M16 3C16 3 18.6442 3 21.0605 4.02201C21.0605 4.02201 23.3936 5.00884 25.1924 6.80761C25.1924 6.80761 26.9912 8.60638 27.978 10.9395C27.978 10.9395 29 13.3558 29 16C29 16 29 18.6442 27.978 21.0605C27.978 21.0605 26.9912 23.3936 25.1924 25.1924C25.1924 25.1924 23.3936 26.9912 21.0605 27.978C21.0605 27.978 18.6442 29 16 29C16 29 13.3558 29 10.9395 27.978C10.9395 27.978 8.60638 26.9912 6.80761 25.1924C6.80761 25.1924 5.00884 23.3936 4.02202 21.0605C4.02202 21.0605 3 18.6442 3 16C3 16 3 13.3558 4.02202 10.9395C4.02202 10.9395 5.00885 8.60638 6.80761 6.80761C6.80761 6.80761 8.60638 5.00884 10.9395 4.02201C10.9395 4.02201 13.3558 3 16 3ZM16 5C16 5 13.7614 5 11.7186 5.86402C11.7186 5.86402 9.74476 6.69889 8.22183 8.22182C8.22183 8.22182 6.6989 9.74476 5.86402 11.7186C5.86402 11.7186 5 13.7614 5 16C5 16 5 18.2386 5.86402 20.2814C5.86402 20.2814 6.69889 22.2552 8.22183 23.7782C8.22183 23.7782 9.74476 25.3011 11.7186 26.136C11.7186 26.136 13.7614 27 16 27C16 27 18.2386 27 20.2814 26.136C20.2814 26.136 22.2552 25.3011 23.7782 23.7782C23.7782 23.7782 25.3011 22.2552 26.136 20.2814C26.136 20.2814 27 18.2386 27 16C27 16 27 13.7614 26.136 11.7186C26.136 11.7186 25.3011 9.74476 23.7782 8.22183C23.7782 8.22183 22.2552 6.69889 20.2814 5.86402C20.2814 5.86402 18.2386 5 16 5Z" fill="white"/>
<path d="M21.0605 4.02201L21.2553 3.56151L21.2553 3.56151L21.0605 4.02201ZM27.978 10.9395L27.5175 11.1343L27.5175 11.1343L27.978 10.9395ZM29 16L29.5 16V16H29ZM27.978 21.0605L28.4385 21.2553L28.4385 21.2553L27.978 21.0605ZM25.1924 25.1924L25.5459 25.5459L25.5459 25.5459L25.1924 25.1924ZM21.0605 27.978L21.2553 28.4385L21.2553 28.4385L21.0605 27.978ZM10.9395 27.978L10.7447 28.4385L10.7447 28.4385L10.9395 27.978ZM6.80761 25.1924L7.16117 24.8388L7.16117 24.8388L6.80761 25.1924ZM4.02202 21.0605L4.48252 20.8657L4.48252 20.8657L4.02202 21.0605ZM4.02202 10.9395L4.48252 11.1343L4.48252 11.1343L4.02202 10.9395ZM6.80761 6.80761L7.16117 7.16116L7.16117 7.16116L6.80761 6.80761ZM10.9395 4.02201L11.1343 4.48252L10.9395 4.02201ZM11.7186 5.86402L11.5238 5.40352L11.5238 5.40352L11.7186 5.86402ZM16 5L16 4.5H16V5ZM8.22183 8.22182L8.57538 8.57538L8.57538 8.57538L8.22183 8.22182ZM5.86402 11.7186L6.32453 11.9134L6.32453 11.9134L5.86402 11.7186ZM5 16L4.5 16V16H5ZM5.86402 20.2814L6.32453 20.0866L6.32453 20.0866L5.86402 20.2814ZM8.22183 23.7782L7.86827 24.1317L7.86827 24.1317L8.22183 23.7782ZM11.7186 26.136L11.5238 26.5965L11.5238 26.5965L11.7186 26.136ZM16 27L16 26.5H16V27ZM20.2814 26.136L20.4762 26.5965L20.4762 26.5965L20.2814 26.136ZM23.7782 23.7782L24.1317 24.1317L24.1317 24.1317L23.7782 23.7782ZM26.136 20.2814L25.6755 20.0866L25.6755 20.0866L26.136 20.2814ZM27 16L26.5 16V16H27ZM26.136 11.7186L25.6755 11.9134L25.6755 11.9134L26.136 11.7186ZM23.7782 8.22183L24.1317 7.86827L24.1317 7.86827L23.7782 8.22183ZM20.2814 5.86402L20.4762 5.40352L20.4762 5.40352L20.2814 5.86402ZM21.2553 3.56151C19.9912 3.02687 18.6782 2.76319 17.6899 2.63209C17.1938 2.56629 16.775 2.5333 16.4788 2.51675C16.3306 2.50847 16.2129 2.50428 16.1313 2.50216C16.0905 2.50111 16.0586 2.50057 16.0365 2.50029C16.0255 2.50015 16.0168 2.50008 16.0107 2.50004C16.0077 2.50002 16.0052 2.50001 16.0034 2.50001C16.0026 2.5 16.0018 2.5 16.0012 2.5C16.001 2.5 16.0007 2.5 16.0005 2.5C16.0004 2.5 16.0003 2.5 16.0002 2.5C16.0001 2.5 16 2.5 16 3C16 3.5 15.9999 3.5 15.9998 3.5C15.9998 3.5 15.9998 3.5 15.9997 3.5C15.9997 3.5 15.9997 3.5 15.9997 3.5C15.9998 3.5 16 3.5 16.0004 3.5C16.0012 3.5 16.0026 3.50001 16.0046 3.50002C16.0086 3.50005 16.0151 3.5001 16.024 3.50021C16.0418 3.50043 16.0692 3.50089 16.1054 3.50183C16.1778 3.5037 16.2855 3.5075 16.423 3.51519C16.6981 3.53057 17.0914 3.56146 17.5584 3.62341C18.4962 3.74781 19.7134 3.99514 20.8657 4.48252L21.2553 3.56151ZM25.5459 6.45406C24.6056 5.51372 23.5334 4.79246 22.7039 4.30842C22.2876 4.0655 21.9287 3.88019 21.6727 3.75508C21.5446 3.69249 21.442 3.64485 21.3706 3.6125C21.3349 3.59632 21.307 3.58395 21.2875 3.57544C21.2778 3.57119 21.2702 3.5679 21.2648 3.56557C21.2621 3.56441 21.2599 3.56349 21.2583 3.56282C21.2575 3.56248 21.2569 3.5622 21.2564 3.56198C21.2561 3.56187 21.2559 3.56178 21.2557 3.5617C21.2556 3.56166 21.2555 3.56162 21.2555 3.5616C21.2554 3.56155 21.2553 3.56151 21.0605 4.02201C20.8657 4.48252 20.8656 4.48249 20.8656 4.48246C20.8656 4.48245 20.8655 4.48243 20.8655 4.48242C20.8654 4.4824 20.8654 4.4824 20.8655 4.48241C20.8655 4.48243 20.8657 4.48252 20.866 4.48266C20.8667 4.48294 20.8679 4.48347 20.8697 4.48423C20.8732 4.48575 20.879 4.48822 20.8868 4.49163C20.9024 4.49845 20.9263 4.50905 20.9579 4.52336C21.0211 4.55201 21.1149 4.59552 21.2336 4.65354C21.4713 4.76967 21.8081 4.9435 22.1999 5.17213C22.9866 5.6312 23.9804 6.30273 24.8388 7.16117L25.5459 6.45406ZM28.4385 10.7447C27.9224 9.5245 27.1988 8.45361 26.6107 7.69285C26.3156 7.311 26.0518 7.00382 25.861 6.79117C25.7655 6.68478 25.6881 6.60185 25.6339 6.54488C25.6068 6.51639 25.5855 6.49437 25.5706 6.47913C25.5632 6.47151 25.5574 6.46559 25.5532 6.4614C25.5512 6.4593 25.5495 6.45764 25.5483 6.45641C25.5477 6.4558 25.5472 6.4553 25.5468 6.45491C25.5466 6.45471 25.5464 6.45454 25.5463 6.4544C25.5462 6.45433 25.5461 6.45424 25.5461 6.45421C25.546 6.45413 25.5459 6.45406 25.1924 6.80761C24.8388 7.16117 24.8388 7.16111 24.8387 7.16106C24.8387 7.16105 24.8387 7.161 24.8387 7.16099C24.8386 7.16096 24.8386 7.16095 24.8386 7.16097C24.8387 7.16102 24.8388 7.16117 24.8391 7.16143C24.8396 7.16196 24.8406 7.16291 24.8419 7.16429C24.8447 7.16705 24.849 7.17151 24.855 7.17763C24.867 7.18988 24.8853 7.20879 24.9093 7.23404C24.9573 7.28455 25.0282 7.36038 25.1167 7.45908C25.294 7.65661 25.5417 7.94494 25.8195 8.30443C26.3776 9.02633 27.0468 10.0214 27.5175 11.1343L28.4385 10.7447ZM29.5 16C29.5 14.6179 29.2336 13.3059 28.9713 12.3463C28.8397 11.8648 28.7079 11.4678 28.6085 11.19C28.5587 11.0509 28.517 10.9415 28.4874 10.8659C28.4725 10.8281 28.4607 10.7987 28.4524 10.7784C28.4482 10.7682 28.445 10.7602 28.4426 10.7546C28.4415 10.7518 28.4405 10.7496 28.4398 10.7479C28.4395 10.7471 28.4392 10.7464 28.439 10.7459C28.4389 10.7456 28.4388 10.7454 28.4387 10.7452C28.4386 10.7451 28.4386 10.745 28.4386 10.7449C28.4385 10.7448 28.4385 10.7447 27.978 10.9395C27.5175 11.1343 27.5174 11.1342 27.5174 11.1341C27.5174 11.1341 27.5174 11.1341 27.5174 11.134C27.5174 11.134 27.5174 11.134 27.5174 11.134C27.5174 11.1341 27.5175 11.1343 27.5176 11.1346C27.5179 11.1353 27.5184 11.1366 27.5192 11.1384C27.5207 11.1421 27.5232 11.148 27.5265 11.1562C27.5332 11.1725 27.5433 11.1977 27.5564 11.2311C27.5827 11.298 27.6208 11.398 27.6669 11.5268C27.7591 11.7846 27.8828 12.157 28.0067 12.61C28.2554 13.5197 28.5 14.7379 28.5 16H29.5ZM28.4385 21.2553C28.9731 19.9912 29.2368 18.6782 29.3679 17.6899C29.4337 17.1938 29.4667 16.775 29.4833 16.4788C29.4915 16.3306 29.4957 16.2129 29.4978 16.1313C29.4989 16.0905 29.4994 16.0586 29.4997 16.0365C29.4998 16.0255 29.4999 16.0168 29.5 16.0107C29.5 16.0077 29.5 16.0052 29.5 16.0034C29.5 16.0026 29.5 16.0018 29.5 16.0012C29.5 16.001 29.5 16.0007 29.5 16.0005C29.5 16.0004 29.5 16.0003 29.5 16.0002C29.5 16.0001 29.5 16 29 16C28.5 16 28.5 15.9999 28.5 15.9998C28.5 15.9998 28.5 15.9998 28.5 15.9997C28.5 15.9997 28.5 15.9997 28.5 15.9997C28.5 15.9998 28.5 16 28.5 16.0004C28.5 16.0012 28.5 16.0026 28.5 16.0046C28.5 16.0086 28.4999 16.0151 28.4998 16.024C28.4996 16.0418 28.4991 16.0692 28.4982 16.1054C28.4963 16.1778 28.4925 16.2855 28.4848 16.423C28.4694 16.6981 28.4385 17.0914 28.3766 17.5584C28.2522 18.4962 28.0049 19.7134 27.5175 20.8657L28.4385 21.2553ZM25.5459 25.5459C26.4863 24.6056 27.2075 23.5334 27.6916 22.7039C27.9345 22.2876 28.1198 21.9287 28.2449 21.6727C28.3075 21.5446 28.3552 21.442 28.3875 21.3706C28.4037 21.3349 28.416 21.307 28.4246 21.2875C28.4288 21.2778 28.4321 21.2702 28.4344 21.2648C28.4356 21.2621 28.4365 21.2599 28.4372 21.2583C28.4375 21.2575 28.4378 21.2569 28.438 21.2564C28.4381 21.2561 28.4382 21.2559 28.4383 21.2557C28.4383 21.2556 28.4384 21.2555 28.4384 21.2555C28.4384 21.2554 28.4385 21.2553 27.978 21.0605C27.5175 20.8657 27.5175 20.8656 27.5175 20.8656C27.5175 20.8656 27.5176 20.8655 27.5176 20.8655C27.5176 20.8654 27.5176 20.8654 27.5176 20.8655C27.5176 20.8655 27.5175 20.8657 27.5173 20.866C27.5171 20.8667 27.5165 20.8679 27.5158 20.8697C27.5143 20.8732 27.5118 20.879 27.5084 20.8868C27.5015 20.9024 27.491 20.9263 27.4766 20.9579C27.448 21.0211 27.4045 21.1149 27.3465 21.2336C27.2303 21.4713 27.0565 21.8081 26.8279 22.1999C26.3688 22.9866 25.6973 23.9804 24.8388 24.8388L25.5459 25.5459ZM21.2553 28.4385C22.4755 27.9224 23.5464 27.1988 24.3072 26.6107C24.689 26.3156 24.9962 26.0518 25.2088 25.861C25.3152 25.7655 25.3981 25.6881 25.4551 25.6339C25.4836 25.6068 25.5056 25.5855 25.5209 25.5706C25.5285 25.5632 25.5344 25.5574 25.5386 25.5532C25.5407 25.5512 25.5424 25.5495 25.5436 25.5483C25.5442 25.5477 25.5447 25.5472 25.5451 25.5468C25.5453 25.5466 25.5455 25.5464 25.5456 25.5463C25.5457 25.5462 25.5458 25.5461 25.5458 25.5461C25.5459 25.546 25.5459 25.5459 25.1924 25.1924C24.8388 24.8388 24.8389 24.8388 24.8389 24.8387C24.839 24.8387 24.839 24.8387 24.839 24.8387C24.839 24.8386 24.8391 24.8386 24.839 24.8386C24.839 24.8387 24.8388 24.8388 24.8386 24.8391C24.838 24.8396 24.8371 24.8406 24.8357 24.8419C24.833 24.8447 24.8285 24.849 24.8224 24.855C24.8101 24.867 24.7912 24.8853 24.766 24.9093C24.7155 24.9573 24.6396 25.0282 24.5409 25.1167C24.3434 25.294 24.0551 25.5417 23.6956 25.8195C22.9737 26.3776 21.9786 27.0468 20.8657 27.5175L21.2553 28.4385ZM16 29.5C17.3821 29.5 18.6941 29.2336 19.6537 28.9713C20.1352 28.8397 20.5322 28.7079 20.81 28.6085C20.9491 28.5587 21.0585 28.517 21.1341 28.4874C21.1719 28.4725 21.2013 28.4607 21.2216 28.4524C21.2318 28.4482 21.2398 28.445 21.2454 28.4426C21.2482 28.4415 21.2504 28.4405 21.2521 28.4398C21.2529 28.4395 21.2536 28.4392 21.2541 28.439C21.2544 28.4389 21.2546 28.4388 21.2548 28.4387C21.2549 28.4386 21.255 28.4386 21.2551 28.4386C21.2552 28.4385 21.2553 28.4385 21.0605 27.978C20.8657 27.5175 20.8658 27.5174 20.8659 27.5174C20.8659 27.5174 20.8659 27.5174 20.866 27.5174C20.866 27.5174 20.866 27.5174 20.866 27.5174C20.8659 27.5174 20.8657 27.5175 20.8654 27.5176C20.8647 27.5179 20.8634 27.5184 20.8616 27.5192C20.8579 27.5207 20.852 27.5232 20.8438 27.5265C20.8275 27.5332 20.8023 27.5433 20.7689 27.5564C20.702 27.5827 20.602 27.6208 20.4732 27.6669C20.2154 27.7591 19.843 27.8828 19.39 28.0067C18.4803 28.2554 17.2621 28.5 16 28.5V29.5ZM10.7447 28.4385C12.0088 28.9731 13.3218 29.2368 14.3101 29.3679C14.8062 29.4337 15.225 29.4667 15.5212 29.4833C15.6694 29.4915 15.7871 29.4957 15.8687 29.4978C15.9095 29.4989 15.9414 29.4994 15.9635 29.4997C15.9745 29.4998 15.9832 29.4999 15.9893 29.5C15.9923 29.5 15.9948 29.5 15.9966 29.5C15.9974 29.5 15.9982 29.5 15.9988 29.5C15.999 29.5 15.9993 29.5 15.9995 29.5C15.9996 29.5 15.9997 29.5 15.9998 29.5C15.9999 29.5 16 29.5 16 29C16 28.5 16.0001 28.5 16.0002 28.5C16.0002 28.5 16.0002 28.5 16.0003 28.5C16.0003 28.5 16.0003 28.5 16.0003 28.5C16.0002 28.5 16 28.5 15.9996 28.5C15.9988 28.5 15.9974 28.5 15.9954 28.5C15.9914 28.5 15.9849 28.4999 15.976 28.4998C15.9582 28.4996 15.9308 28.4991 15.8946 28.4982C15.8222 28.4963 15.7145 28.4925 15.577 28.4848C15.3019 28.4694 14.9086 28.4385 14.4416 28.3766C13.5038 28.2522 12.2866 28.0049 11.1343 27.5175L10.7447 28.4385ZM6.45406 25.5459C7.39439 26.4863 8.46658 27.2075 9.2961 27.6916C9.71241 27.9345 10.0713 28.1198 10.3273 28.2449C10.4554 28.3075 10.558 28.3552 10.6294 28.3875C10.6651 28.4037 10.693 28.416 10.7125 28.4246C10.7222 28.4288 10.7298 28.4321 10.7352 28.4344C10.7379 28.4356 10.7401 28.4365 10.7417 28.4372C10.7425 28.4375 10.7431 28.4378 10.7436 28.438C10.7439 28.4381 10.7441 28.4382 10.7443 28.4383C10.7444 28.4383 10.7445 28.4384 10.7445 28.4384C10.7446 28.4384 10.7447 28.4385 10.9395 27.978C11.1343 27.5175 11.1344 27.5175 11.1344 27.5175C11.1344 27.5175 11.1345 27.5176 11.1345 27.5176C11.1346 27.5176 11.1346 27.5176 11.1345 27.5176C11.1345 27.5176 11.1343 27.5175 11.134 27.5173C11.1333 27.5171 11.1321 27.5165 11.1303 27.5158C11.1268 27.5143 11.121 27.5118 11.1132 27.5084C11.0976 27.5015 11.0737 27.491 11.0421 27.4766C10.9789 27.448 10.8851 27.4045 10.7664 27.3465C10.5287 27.2303 10.1919 27.0565 9.80009 26.8279C9.01336 26.3688 8.0196 25.6973 7.16117 24.8388L6.45406 25.5459ZM3.56151 21.2553C4.07763 22.4755 4.80122 23.5464 5.38928 24.3072C5.68445 24.689 5.94817 24.9962 6.13901 25.2088C6.23449 25.3152 6.3119 25.3981 6.36609 25.4551C6.39319 25.4836 6.41449 25.5056 6.42936 25.5209C6.4368 25.5285 6.44263 25.5344 6.44677 25.5386C6.44884 25.5407 6.45049 25.5424 6.45171 25.5436C6.45232 25.5442 6.45282 25.5447 6.45321 25.5451C6.45341 25.5453 6.45358 25.5455 6.45372 25.5456C6.45379 25.5457 6.45387 25.5458 6.45391 25.5458C6.45399 25.5459 6.45406 25.5459 6.80761 25.1924C7.16117 24.8388 7.16122 24.8389 7.16127 24.8389C7.16128 24.839 7.16133 24.839 7.16134 24.839C7.16137 24.839 7.16138 24.839 7.16136 24.839C7.16131 24.839 7.16116 24.8388 7.1609 24.8386C7.16038 24.838 7.15943 24.8371 7.15807 24.8357C7.15535 24.833 7.15096 24.8285 7.14498 24.8224C7.13302 24.8101 7.11471 24.7912 7.0907 24.766C7.04266 24.7155 6.97183 24.6396 6.88326 24.5409C6.70599 24.3434 6.45835 24.0551 6.18047 23.6956C5.62244 22.9737 4.95323 21.9786 4.48252 20.8657L3.56151 21.2553ZM2.5 16C2.5 17.3821 2.76638 18.6941 3.02871 19.6537C3.16035 20.1352 3.29214 20.5322 3.39154 20.81C3.44127 20.9491 3.48298 21.0585 3.51264 21.1341C3.52747 21.1719 3.53929 21.2013 3.5476 21.2216C3.55176 21.2318 3.55504 21.2398 3.55738 21.2454C3.55854 21.2482 3.55948 21.2504 3.56017 21.2521C3.56052 21.2529 3.5608 21.2536 3.56103 21.2541C3.56114 21.2544 3.56124 21.2546 3.56132 21.2548C3.56136 21.2549 3.56141 21.255 3.56143 21.2551C3.56147 21.2552 3.56151 21.2553 4.02202 21.0605C4.48252 20.8657 4.48255 20.8658 4.48258 20.8659C4.48259 20.8659 4.48261 20.8659 4.48262 20.866C4.48264 20.866 4.48264 20.866 4.48263 20.866C4.48261 20.8659 4.48252 20.8657 4.48238 20.8654C4.48209 20.8647 4.48156 20.8634 4.48079 20.8616C4.47926 20.8579 4.4768 20.852 4.47348 20.8438C4.46682 20.8275 4.45668 20.8023 4.44356 20.7689C4.41733 20.702 4.37919 20.602 4.33311 20.4732C4.24088 20.2154 4.11717 19.843 3.99331 19.39C3.74463 18.4803 3.5 17.2621 3.5 16H2.5ZM3.56151 10.7447C3.02687 12.0088 2.7632 13.3218 2.63209 14.3101C2.56629 14.8062 2.5333 15.225 2.51675 15.5212C2.50847 15.6694 2.50428 15.7871 2.50216 15.8687C2.50111 15.9095 2.50057 15.9414 2.50029 15.9635C2.50015 15.9745 2.50008 15.9832 2.50004 15.9893C2.50002 15.9923 2.50001 15.9948 2.50001 15.9966C2.5 15.9974 2.5 15.9982 2.5 15.9988C2.5 15.999 2.5 15.9993 2.5 15.9995C2.5 15.9996 2.5 15.9997 2.5 15.9998C2.5 15.9999 2.5 16 3 16C3.5 16 3.5 16.0001 3.5 16.0002C3.5 16.0002 3.5 16.0002 3.5 16.0003C3.5 16.0003 3.5 16.0003 3.5 16.0003C3.5 16.0002 3.5 16 3.5 15.9996C3.5 15.9988 3.50001 15.9974 3.50002 15.9954C3.50005 15.9914 3.5001 15.9849 3.50021 15.976C3.50043 15.9582 3.50089 15.9308 3.50183 15.8946C3.5037 15.8222 3.5075 15.7145 3.51519 15.577C3.53057 15.3019 3.56146 14.9086 3.62341 14.4416C3.74781 13.5038 3.99514 12.2866 4.48252 11.1343L3.56151 10.7447ZM6.45406 6.45406C5.51372 7.39439 4.79246 8.46658 4.30842 9.2961C4.0655 9.71241 3.88019 10.0713 3.75508 10.3273C3.69249 10.4554 3.64485 10.558 3.6125 10.6294C3.59632 10.6651 3.58395 10.693 3.57545 10.7125C3.57119 10.7222 3.5679 10.7298 3.56558 10.7352C3.56441 10.7379 3.56349 10.7401 3.56282 10.7417C3.56248 10.7425 3.5622 10.7431 3.56198 10.7436C3.56187 10.7439 3.56178 10.7441 3.5617 10.7443C3.56166 10.7444 3.56162 10.7445 3.5616 10.7445C3.56155 10.7446 3.56151 10.7447 4.02202 10.9395C4.48252 11.1343 4.48249 11.1344 4.48246 11.1344C4.48245 11.1344 4.48243 11.1345 4.48242 11.1345C4.4824 11.1346 4.4824 11.1346 4.48241 11.1345C4.48243 11.1345 4.48252 11.1343 4.48266 11.134C4.48294 11.1333 4.48347 11.1321 4.48423 11.1303C4.48575 11.1268 4.48822 11.121 4.49163 11.1132C4.49845 11.0976 4.50905 11.0737 4.52337 11.0421C4.55201 10.9789 4.59552 10.8851 4.65355 10.7664C4.76968 10.5287 4.9435 10.1919 5.17213 9.80009C5.6312 9.01336 6.30273 8.0196 7.16117 7.16116L6.45406 6.45406ZM10.7447 3.56151C9.5245 4.07763 8.45361 4.80122 7.69285 5.38928C7.311 5.68445 7.00382 5.94817 6.79117 6.13901C6.68478 6.23449 6.60186 6.3119 6.54488 6.36609C6.51639 6.39319 6.49437 6.41449 6.47913 6.42936C6.47152 6.4368 6.46559 6.44263 6.4614 6.44677C6.4593 6.44884 6.45764 6.45049 6.45642 6.45171C6.4558 6.45232 6.4553 6.45282 6.45491 6.45321C6.45471 6.45341 6.45454 6.45358 6.4544 6.45372C6.45433 6.45379 6.45424 6.45387 6.45421 6.45391C6.45413 6.45399 6.45406 6.45406 6.80761 6.80761C7.16117 7.16116 7.16111 7.16122 7.16106 7.16127C7.16105 7.16128 7.16101 7.16133 7.16099 7.16134C7.16096 7.16137 7.16095 7.16138 7.16098 7.16136C7.16102 7.16131 7.16117 7.16116 7.16143 7.1609C7.16196 7.16038 7.16291 7.15943 7.16429 7.15807C7.16705 7.15535 7.17151 7.15095 7.17763 7.14498C7.18988 7.13302 7.20879 7.11471 7.23404 7.0907C7.28455 7.04266 7.36038 6.97183 7.45908 6.88326C7.65661 6.70599 7.94494 6.45835 8.30443 6.18047C9.02633 5.62244 10.0214 4.95323 11.1343 4.48252L10.7447 3.56151ZM16 2.5C14.6179 2.5 13.3059 2.76638 12.3463 3.02871C11.8648 3.16035 11.4678 3.29214 11.19 3.39154C11.0509 3.44127 10.9415 3.48298 10.8659 3.51264C10.8281 3.52747 10.7987 3.53929 10.7784 3.5476C10.7682 3.55176 10.7602 3.55503 10.7546 3.55737C10.7518 3.55854 10.7496 3.55948 10.7479 3.56017C10.7471 3.56052 10.7464 3.5608 10.7459 3.56103C10.7456 3.56114 10.7454 3.56124 10.7452 3.56132C10.7451 3.56136 10.745 3.56141 10.7449 3.56143C10.7448 3.56147 10.7447 3.56151 10.9395 4.02201C11.1343 4.48252 11.1342 4.48255 11.1341 4.48258C11.1341 4.48258 11.1341 4.48261 11.134 4.48262C11.134 4.48264 11.134 4.48264 11.134 4.48263C11.1341 4.48261 11.1343 4.48252 11.1346 4.48238C11.1353 4.48209 11.1366 4.48156 11.1384 4.48079C11.1421 4.47926 11.148 4.4768 11.1562 4.47347C11.1725 4.46682 11.1977 4.45668 11.2311 4.44356C11.298 4.41733 11.398 4.37919 11.5268 4.33311C11.7846 4.24088 12.157 4.11717 12.61 3.99331C13.5197 3.74463 14.7379 3.5 16 3.5V2.5ZM11.9134 6.32453C12.8788 5.91617 13.9012 5.70833 14.691 5.60367C15.084 5.55159 15.4149 5.52564 15.6462 5.51272C15.7617 5.50627 15.8522 5.50309 15.9128 5.50152C15.943 5.50074 15.9659 5.50036 15.9806 5.50017C15.988 5.50008 15.9933 5.50004 15.9966 5.50002C15.9982 5.50001 15.9993 5.5 15.9999 5.5C16.0002 5.5 16.0003 5.5 16.0003 5.5C16.0004 5.5 16.0003 5.5 16.0003 5.5C16.0002 5.5 16.0002 5.5 16.0002 5.5C16.0001 5.5 16 5.5 16 5C16 4.5 15.9999 4.5 15.9998 4.5C15.9997 4.5 15.9996 4.5 15.9995 4.5C15.9993 4.5 15.9991 4.5 15.9988 4.5C15.9983 4.5 15.9976 4.5 15.9969 4.5C15.9953 4.50001 15.9931 4.50002 15.9904 4.50003C15.9851 4.50007 15.9776 4.50013 15.9681 4.50025C15.9491 4.50049 15.9218 4.50095 15.8869 4.50185C15.8171 4.50366 15.7167 4.50723 15.5904 4.51428C15.3382 4.52836 14.9817 4.55641 14.5597 4.61234C13.7195 4.72368 12.6012 4.94785 11.5238 5.40352L11.9134 6.32453ZM8.57538 8.57538C9.29592 7.85484 10.1309 7.29025 10.7933 6.90366C11.123 6.71127 11.4063 6.56506 11.6059 6.46749C11.7057 6.41874 11.7843 6.38225 11.8372 6.3583C11.8636 6.34633 11.8836 6.3375 11.8965 6.33186C11.9029 6.32904 11.9076 6.32701 11.9104 6.32579C11.9119 6.32518 11.9128 6.32477 11.9133 6.32455C11.9136 6.32445 11.9137 6.32439 11.9137 6.32439C11.9137 6.32439 11.9137 6.3244 11.9136 6.32442C11.9136 6.32443 11.9135 6.32446 11.9135 6.32446C11.9135 6.32449 11.9134 6.32453 11.7186 5.86402C11.5238 5.40352 11.5237 5.40356 11.5236 5.4036C11.5236 5.40362 11.5235 5.40367 11.5234 5.4037C11.5232 5.40378 11.523 5.40386 11.5228 5.40396C11.5223 5.40416 11.5217 5.40441 11.521 5.40471C11.5196 5.40532 11.5177 5.40613 11.5154 5.40714C11.5107 5.40917 11.5041 5.41202 11.4957 5.41568C11.4789 5.42301 11.455 5.43361 11.4245 5.44744C11.3634 5.4751 11.276 5.51573 11.1669 5.56904C10.9488 5.6756 10.6435 5.8333 10.2893 6.03999C9.58405 6.45157 8.67067 7.06588 7.86827 7.86827L8.57538 8.57538ZM6.32453 11.9134C6.71925 10.9802 7.28149 10.1439 7.75157 9.53584C7.98548 9.23328 8.1939 8.99065 8.34293 8.82459C8.41739 8.74163 8.47685 8.67797 8.51706 8.6357C8.53715 8.61457 8.55242 8.59881 8.56232 8.58866C8.56727 8.58359 8.57088 8.57992 8.57308 8.5777C8.57418 8.57659 8.57493 8.57583 8.57531 8.57545C8.57551 8.57525 8.57561 8.57515 8.57562 8.57514C8.57563 8.57513 8.57561 8.57515 8.57557 8.57519C8.57555 8.57521 8.5755 8.57526 8.57549 8.57527C8.57544 8.57532 8.57538 8.57538 8.22183 8.22182C7.86827 7.86827 7.8682 7.86834 7.86813 7.86842C7.86809 7.86845 7.86801 7.86853 7.86794 7.8686C7.86781 7.86873 7.86766 7.86889 7.86748 7.86907C7.86712 7.86943 7.86667 7.86988 7.86613 7.87043C7.86504 7.87152 7.86359 7.87298 7.86178 7.87481C7.85817 7.87847 7.85312 7.88359 7.84672 7.89016C7.8339 7.90328 7.81563 7.92216 7.79246 7.94653C7.74611 7.99526 7.68007 8.066 7.59871 8.15666C7.43611 8.33783 7.21161 8.5993 6.96043 8.92421C6.46033 9.57109 5.84367 10.4832 5.40352 11.5238L6.32453 11.9134ZM5.5 16C5.5 14.9406 5.70516 13.9171 5.91433 13.1516C6.01844 12.7706 6.1224 12.4576 6.19982 12.2412C6.23849 12.133 6.27045 12.0492 6.29237 11.9933C6.30332 11.9654 6.31176 11.9445 6.31726 11.931C6.32001 11.9243 6.32203 11.9194 6.32326 11.9164C6.32387 11.915 6.32429 11.914 6.3245 11.9134C6.32461 11.9132 6.32467 11.9131 6.32467 11.913C6.32467 11.913 6.32466 11.9131 6.32464 11.9131C6.32463 11.9132 6.3246 11.9132 6.32459 11.9132C6.32456 11.9133 6.32453 11.9134 5.86402 11.7186C5.40352 11.5238 5.40348 11.5239 5.40344 11.524C5.40342 11.5241 5.40337 11.5242 5.40333 11.5243C5.40326 11.5245 5.40317 11.5247 5.40307 11.5249C5.40286 11.5254 5.4026 11.526 5.4023 11.5268C5.40168 11.5282 5.40086 11.5302 5.39984 11.5326C5.3978 11.5376 5.39496 11.5444 5.39138 11.5532C5.38423 11.5707 5.3741 11.5959 5.36143 11.6282C5.33609 11.6928 5.30055 11.786 5.25822 11.9044C5.17363 12.1409 5.06159 12.4785 4.94969 12.888C4.72686 13.7036 4.5 14.8208 4.5 16L5.5 16ZM6.32453 20.0866C5.91617 19.1212 5.70833 18.0988 5.60367 17.309C5.55159 16.916 5.52564 16.5851 5.51272 16.3538C5.50627 16.2383 5.50309 16.1478 5.50152 16.0872C5.50074 16.057 5.50036 16.0341 5.50017 16.0194C5.50008 16.012 5.50004 16.0067 5.50002 16.0034C5.50001 16.0018 5.5 16.0007 5.5 16.0001C5.5 15.9998 5.5 15.9997 5.5 15.9997C5.5 15.9996 5.5 15.9997 5.5 15.9997C5.5 15.9998 5.5 15.9998 5.5 15.9998C5.5 15.9999 5.5 16 5 16C4.5 16 4.5 16.0001 4.5 16.0002C4.5 16.0003 4.5 16.0004 4.5 16.0005C4.5 16.0007 4.5 16.0009 4.5 16.0012C4.5 16.0017 4.5 16.0024 4.50001 16.0032C4.50001 16.0047 4.50002 16.0069 4.50004 16.0096C4.50007 16.0149 4.50013 16.0224 4.50025 16.0319C4.50049 16.0509 4.50095 16.0782 4.50185 16.1131C4.50366 16.1829 4.50723 16.2833 4.51428 16.4096C4.52836 16.6619 4.55641 17.0183 4.61234 17.4403C4.72368 18.2805 4.94785 19.3988 5.40352 20.4762L6.32453 20.0866ZM8.57538 23.4246C7.85484 22.7041 7.29025 21.8691 6.90366 21.2067C6.71127 20.877 6.56506 20.5937 6.46749 20.3941C6.41875 20.2943 6.38225 20.2157 6.3583 20.1628C6.34633 20.1364 6.33751 20.1164 6.33186 20.1035C6.32904 20.0971 6.32702 20.0924 6.32579 20.0896C6.32518 20.0881 6.32477 20.0872 6.32456 20.0867C6.32445 20.0864 6.3244 20.0863 6.32439 20.0863C6.32439 20.0863 6.3244 20.0863 6.32442 20.0864C6.32443 20.0864 6.32446 20.0865 6.32446 20.0865C6.32449 20.0865 6.32453 20.0866 5.86402 20.2814C5.40352 20.4762 5.40356 20.4763 5.4036 20.4764C5.40362 20.4764 5.40367 20.4765 5.4037 20.4766C5.40378 20.4768 5.40386 20.477 5.40396 20.4772C5.40416 20.4777 5.40441 20.4783 5.40471 20.479C5.40532 20.4804 5.40613 20.4823 5.40714 20.4846C5.40917 20.4893 5.41202 20.4959 5.41568 20.5043C5.42301 20.5211 5.43361 20.545 5.44744 20.5755C5.4751 20.6366 5.51573 20.724 5.56904 20.8331C5.6756 21.0512 5.8333 21.3565 6.03999 21.7107C6.45157 22.4159 7.06588 23.3293 7.86827 24.1317L8.57538 23.4246ZM11.9134 25.6755C10.9802 25.2807 10.1439 24.7185 9.53584 24.2484C9.23328 24.0145 8.99065 23.8061 8.82459 23.6571C8.74163 23.5826 8.67797 23.5231 8.6357 23.4829C8.61458 23.4628 8.59881 23.4476 8.58866 23.4377C8.58359 23.4327 8.57993 23.4291 8.5777 23.4269C8.57659 23.4258 8.57584 23.4251 8.57545 23.4247C8.57525 23.4245 8.57515 23.4244 8.57514 23.4244C8.57513 23.4244 8.57515 23.4244 8.57519 23.4244C8.57521 23.4245 8.57526 23.4245 8.57527 23.4245C8.57532 23.4246 8.57538 23.4246 8.22183 23.7782C7.86827 24.1317 7.86834 24.1318 7.86842 24.1319C7.86845 24.1319 7.86853 24.132 7.8686 24.1321C7.86873 24.1322 7.86889 24.1323 7.86907 24.1325C7.86943 24.1329 7.86988 24.1333 7.87043 24.1339C7.87152 24.135 7.87298 24.1364 7.87481 24.1382C7.87847 24.1418 7.88359 24.1469 7.89016 24.1533C7.90329 24.1661 7.92217 24.1844 7.94653 24.2075C7.99526 24.2539 8.066 24.3199 8.15666 24.4013C8.33783 24.5639 8.5993 24.7884 8.92421 25.0396C9.57109 25.5397 10.4832 26.1563 11.5238 26.5965L11.9134 25.6755ZM16 26.5C14.9406 26.5 13.9171 26.2948 13.1516 26.0857C12.7706 25.9816 12.4576 25.8776 12.2412 25.8002C12.133 25.7615 12.0492 25.7295 11.9933 25.7076C11.9654 25.6967 11.9445 25.6882 11.931 25.6827C11.9243 25.68 11.9194 25.678 11.9164 25.6767C11.915 25.6761 11.914 25.6757 11.9134 25.6755C11.9132 25.6754 11.9131 25.6753 11.913 25.6753C11.913 25.6753 11.9131 25.6753 11.9131 25.6754C11.9132 25.6754 11.9132 25.6754 11.9132 25.6754C11.9133 25.6754 11.9134 25.6755 11.7186 26.136C11.5238 26.5965 11.5239 26.5965 11.524 26.5966C11.5241 26.5966 11.5242 26.5966 11.5243 26.5967C11.5245 26.5967 11.5247 26.5968 11.5249 26.5969C11.5254 26.5971 11.526 26.5974 11.5268 26.5977C11.5282 26.5983 11.5302 26.5991 11.5326 26.6002C11.5376 26.6022 11.5444 26.605 11.5532 26.6086C11.5707 26.6158 11.5959 26.6259 11.6282 26.6386C11.6928 26.6639 11.786 26.6994 11.9044 26.7418C12.1409 26.8264 12.4785 26.9384 12.888 27.0503C13.7036 27.2731 14.8208 27.5 16 27.5V26.5ZM20.0866 25.6755C19.1212 26.0838 18.0987 26.2917 17.309 26.3963C16.916 26.4484 16.5851 26.4744 16.3538 26.4873C16.2383 26.4937 16.1478 26.4969 16.0872 26.4985C16.057 26.4993 16.0341 26.4996 16.0194 26.4998C16.012 26.4999 16.0067 26.5 16.0034 26.5C16.0018 26.5 16.0007 26.5 16.0001 26.5C15.9998 26.5 15.9997 26.5 15.9997 26.5C15.9996 26.5 15.9997 26.5 15.9997 26.5C15.9998 26.5 15.9998 26.5 15.9998 26.5C15.9999 26.5 16 26.5 16 27C16 27.5 16.0001 27.5 16.0002 27.5C16.0003 27.5 16.0004 27.5 16.0005 27.5C16.0007 27.5 16.0009 27.5 16.0012 27.5C16.0017 27.5 16.0024 27.5 16.0032 27.5C16.0047 27.5 16.0069 27.5 16.0096 27.5C16.0149 27.4999 16.0224 27.4999 16.0319 27.4998C16.0509 27.4995 16.0782 27.499 16.1131 27.4981C16.1829 27.4963 16.2833 27.4928 16.4096 27.4857C16.6619 27.4716 17.0183 27.4436 17.4403 27.3877C18.2805 27.2763 19.3988 27.0521 20.4762 26.5965L20.0866 25.6755ZM23.4246 23.4246C22.7041 24.1452 21.8691 24.7097 21.2067 25.0963C20.877 25.2887 20.5937 25.4349 20.3941 25.5325C20.2943 25.5813 20.2157 25.6177 20.1628 25.6417C20.1364 25.6537 20.1164 25.6625 20.1035 25.6681C20.0971 25.671 20.0924 25.673 20.0896 25.6742C20.0881 25.6748 20.0872 25.6752 20.0867 25.6754C20.0864 25.6755 20.0863 25.6756 20.0863 25.6756C20.0863 25.6756 20.0863 25.6756 20.0864 25.6756C20.0864 25.6756 20.0865 25.6755 20.0865 25.6755C20.0865 25.6755 20.0866 25.6755 20.2814 26.136C20.4762 26.5965 20.4763 26.5964 20.4764 26.5964C20.4764 26.5964 20.4765 26.5963 20.4766 26.5963C20.4768 26.5962 20.477 26.5961 20.4772 26.596C20.4777 26.5958 20.4783 26.5956 20.479 26.5953C20.4804 26.5947 20.4823 26.5939 20.4846 26.5929C20.4894 26.5908 20.4959 26.588 20.5043 26.5843C20.5211 26.577 20.545 26.5664 20.5755 26.5526C20.6366 26.5249 20.724 26.4843 20.8331 26.431C21.0512 26.3244 21.3565 26.1667 21.7107 25.96C22.4159 25.5484 23.3293 24.9341 24.1317 24.1317L23.4246 23.4246ZM25.6755 20.0866C25.2808 21.0198 24.7185 21.8561 24.2484 22.4642C24.0145 22.7667 23.8061 23.0093 23.6571 23.1754C23.5826 23.2584 23.5231 23.322 23.4829 23.3643C23.4628 23.3854 23.4476 23.4012 23.4377 23.4113C23.4327 23.4164 23.4291 23.4201 23.4269 23.4223C23.4258 23.4234 23.4251 23.4242 23.4247 23.4246C23.4245 23.4247 23.4244 23.4248 23.4244 23.4249C23.4244 23.4249 23.4244 23.4248 23.4244 23.4248C23.4245 23.4248 23.4245 23.4247 23.4245 23.4247C23.4246 23.4247 23.4246 23.4246 23.7782 23.7782C24.1317 24.1317 24.1318 24.1317 24.1319 24.1316C24.1319 24.1315 24.132 24.1315 24.1321 24.1314C24.1322 24.1313 24.1323 24.1311 24.1325 24.1309C24.1329 24.1306 24.1333 24.1301 24.1339 24.1296C24.135 24.1285 24.1364 24.127 24.1382 24.1252C24.1418 24.1215 24.1469 24.1164 24.1533 24.1098C24.1661 24.0967 24.1844 24.0778 24.2075 24.0535C24.2539 24.0047 24.3199 23.934 24.4013 23.8433C24.5639 23.6622 24.7884 23.4007 25.0396 23.0758C25.5397 22.4289 26.1563 21.5168 26.5965 20.4762L25.6755 20.0866ZM26.5 16C26.5 17.0594 26.2948 18.0829 26.0857 18.8484C25.9816 19.2294 25.8776 19.5424 25.8002 19.7588C25.7615 19.867 25.7295 19.9508 25.7076 20.0067C25.6967 20.0346 25.6882 20.0555 25.6827 20.069C25.68 20.0757 25.678 20.0806 25.6767 20.0836C25.6761 20.085 25.6757 20.086 25.6755 20.0866C25.6754 20.0868 25.6753 20.0869 25.6753 20.087C25.6753 20.087 25.6753 20.0869 25.6754 20.0869C25.6754 20.0868 25.6754 20.0868 25.6754 20.0868C25.6754 20.0867 25.6755 20.0866 26.136 20.2814C26.5965 20.4762 26.5965 20.4761 26.5966 20.476C26.5966 20.4759 26.5966 20.4758 26.5967 20.4757C26.5967 20.4755 26.5968 20.4753 26.5969 20.4751C26.5971 20.4746 26.5974 20.474 26.5977 20.4732C26.5983 20.4718 26.5991 20.4698 26.6002 20.4674C26.6022 20.4624 26.605 20.4556 26.6086 20.4468C26.6158 20.4293 26.6259 20.4041 26.6386 20.3718C26.6639 20.3072 26.6994 20.214 26.7418 20.0956C26.8264 19.8591 26.9384 19.5215 27.0503 19.112C27.2731 18.2964 27.5 17.1792 27.5 16H26.5ZM25.6755 11.9134C26.0838 12.8788 26.2917 13.9013 26.3963 14.691C26.4484 15.084 26.4744 15.4149 26.4873 15.6462C26.4937 15.7617 26.4969 15.8522 26.4985 15.9128C26.4993 15.943 26.4996 15.9659 26.4998 15.9806C26.4999 15.988 26.5 15.9933 26.5 15.9966C26.5 15.9982 26.5 15.9993 26.5 15.9999C26.5 16.0002 26.5 16.0003 26.5 16.0003C26.5 16.0004 26.5 16.0003 26.5 16.0003C26.5 16.0002 26.5 16.0002 26.5 16.0002C26.5 16.0001 26.5 16 27 16C27.5 16 27.5 15.9999 27.5 15.9998C27.5 15.9997 27.5 15.9996 27.5 15.9995C27.5 15.9993 27.5 15.9991 27.5 15.9988C27.5 15.9983 27.5 15.9976 27.5 15.9968C27.5 15.9953 27.5 15.9931 27.5 15.9904C27.4999 15.9851 27.4999 15.9776 27.4998 15.9681C27.4995 15.9491 27.499 15.9218 27.4981 15.8869C27.4963 15.8171 27.4928 15.7167 27.4857 15.5904C27.4716 15.3382 27.4436 14.9817 27.3877 14.5597C27.2763 13.7195 27.0522 12.6012 26.5965 11.5238L25.6755 11.9134ZM23.4246 8.57538C24.1452 9.29592 24.7097 10.1309 25.0963 10.7933C25.2887 11.123 25.4349 11.4063 25.5325 11.6059C25.5813 11.7057 25.6177 11.7843 25.6417 11.8372C25.6537 11.8636 25.6625 11.8836 25.6681 11.8965C25.671 11.9029 25.673 11.9076 25.6742 11.9104C25.6748 11.9119 25.6752 11.9128 25.6754 11.9133C25.6755 11.9136 25.6756 11.9137 25.6756 11.9137C25.6756 11.9137 25.6756 11.9137 25.6756 11.9136C25.6756 11.9136 25.6755 11.9135 25.6755 11.9135C25.6755 11.9135 25.6755 11.9134 26.136 11.7186C26.5965 11.5238 26.5964 11.5237 26.5964 11.5236C26.5964 11.5236 26.5963 11.5235 26.5963 11.5234C26.5962 11.5232 26.5961 11.523 26.596 11.5228C26.5958 11.5223 26.5956 11.5217 26.5953 11.521C26.5947 11.5196 26.5939 11.5177 26.5929 11.5154C26.5908 11.5107 26.588 11.5041 26.5843 11.4957C26.577 11.4789 26.5664 11.455 26.5526 11.4245C26.5249 11.3634 26.4843 11.276 26.431 11.1669C26.3244 10.9488 26.1667 10.6435 25.96 10.2893C25.5484 9.58405 24.9341 8.67067 24.1317 7.86827L23.4246 8.57538ZM20.0866 6.32453C21.0198 6.71925 21.8561 7.28149 22.4642 7.75157C22.7667 7.98548 23.0093 8.19389 23.1754 8.34293C23.2584 8.41739 23.322 8.47685 23.3643 8.51706C23.3854 8.53715 23.4012 8.55242 23.4113 8.56232C23.4164 8.56727 23.4201 8.57088 23.4223 8.57308C23.4234 8.57418 23.4242 8.57493 23.4246 8.57531C23.4247 8.57551 23.4249 8.57561 23.4249 8.57562C23.4249 8.57563 23.4249 8.57561 23.4248 8.57557C23.4248 8.57555 23.4247 8.5755 23.4247 8.57549C23.4247 8.57544 23.4246 8.57538 23.7782 8.22183C24.1317 7.86827 24.1317 7.8682 24.1316 7.86812C24.1315 7.86809 24.1315 7.86801 24.1314 7.86794C24.1313 7.86781 24.1311 7.86765 24.1309 7.86748C24.1306 7.86712 24.1301 7.86667 24.1296 7.86612C24.1285 7.86504 24.127 7.86359 24.1252 7.86178C24.1215 7.85817 24.1164 7.85312 24.1098 7.84671C24.0967 7.8339 24.0778 7.81563 24.0535 7.79246C24.0047 7.74611 23.934 7.68007 23.8433 7.59871C23.6622 7.43611 23.4007 7.21161 23.0758 6.96043C22.4289 6.46033 21.5168 5.84367 20.4762 5.40352L20.0866 6.32453ZM16 5.5C17.0594 5.5 18.0829 5.70516 18.8484 5.91433C19.2294 6.01844 19.5424 6.1224 19.7589 6.19982C19.867 6.23849 19.9508 6.27045 20.0067 6.29237C20.0346 6.30332 20.0555 6.31176 20.069 6.31726C20.0757 6.32001 20.0806 6.32203 20.0836 6.32326C20.085 6.32387 20.086 6.32429 20.0866 6.3245C20.0868 6.32461 20.0869 6.32466 20.087 6.32467C20.087 6.32467 20.0869 6.32466 20.0869 6.32464C20.0868 6.32462 20.0868 6.3246 20.0868 6.32459C20.0867 6.32456 20.0866 6.32453 20.2814 5.86402C20.4762 5.40352 20.4761 5.40348 20.476 5.40344C20.4759 5.40342 20.4758 5.40337 20.4757 5.40333C20.4755 5.40326 20.4753 5.40317 20.4751 5.40306C20.4746 5.40286 20.474 5.4026 20.4733 5.40229C20.4718 5.40168 20.4698 5.40086 20.4674 5.39984C20.4624 5.39779 20.4556 5.39496 20.4468 5.39138C20.4293 5.38422 20.4041 5.3741 20.3718 5.36143C20.3072 5.33609 20.214 5.30055 20.0956 5.25822C19.8591 5.17363 19.5215 5.06159 19.112 4.94969C18.2964 4.72685 17.1792 4.5 16 4.5L16 5.5Z" fill="white"/>
<path d="M20.7067 12.7075L20.7071 12.7071C20.8946 12.5196 21 12.2652 21 12C21 11.7348 20.8946 11.4804 20.7071 11.2929L20.7065 11.2923L20.6985 11.2844L20.6979 11.2838C20.5112 11.1018 20.2607 11 20 11C19.7348 11 19.4804 11.1054 19.2929 11.2929L19.2925 11.2933L11.2933 19.2925L11.2929 19.2929C11.1054 19.4804 11 19.7348 11 20C11 20.016 11.0004 20.032 11.0012 20.048C11.0131 20.2964 11.1171 20.5313 11.2929 20.7071C11.4804 20.8946 11.7348 21 12 21C12.2652 21 12.5196 20.8946 12.7071 20.7071L12.7075 20.7067L20.7067 12.7075Z" fill="white" stroke="white"/>
<path d="M12.7071 11.2929C12.5196 11.1054 12.2652 11 12 11C11.7348 11 11.4804 11.1054 11.2929 11.2929C11.1054 11.4804 11 11.7348 11 12C11 12.2652 11.1054 12.5196 11.2929 12.7071L19.2929 20.7071C19.4804 20.8946 19.7348 21 20 21C20.2652 21 20.5196 20.8946 20.7071 20.7071C20.8946 20.5196 21 20.2652 21 20C21 19.7348 20.8946 19.4804 20.7071 19.2929L12.7071 11.2929Z" fill="white" stroke="white"/>
</svg>
